<svg width="54" height="15" viewBox="0 0 54 15" fill="none" xmlns="http://www.w3.org/2000/svg">
<path d="M8.8 14V11.5H3.16V0.659999H0.32V14H8.8ZM16.5619 14.24C20.6019 14.24 23.5419 11.36 23.5419 7.34C23.5419 3.32 20.6019 0.439999 16.5619 0.439999C12.5419 0.439999 9.60188 3.32 9.60188 7.34C9.60188 11.36 12.5419 14.24 16.5619 14.24ZM16.5619 11.72C14.1019 11.72 12.5219 9.82 12.5219 7.34C12.5219 4.84 14.1019 2.96 16.5619 2.96C19.0219 2.96 20.6219 4.84 20.6219 7.34C20.6219 9.82 19.0219 11.72 16.5619 11.72ZM31.9948 14.26C34.4148 14.26 36.3148 13.26 37.6748 11.74V6.62H31.3148V9.1H34.8348V10.7C34.2948 11.2 33.1748 11.72 31.9948 11.72C29.5748 11.72 27.8148 9.86 27.8148 7.34C27.8148 4.82 29.5748 2.96 31.9948 2.96C33.4148 2.96 34.5548 3.76 35.1548 4.7L37.5148 3.42C36.5148 1.84 34.7748 0.439999 31.9948 0.439999C28.0948 0.439999 24.8948 3.12 24.8948 7.34C24.8948 11.54 28.0948 14.26 31.9948 14.26ZM46.2494 14.24C50.2894 14.24 53.2294 11.36 53.2294 7.34C53.2294 3.32 50.2894 0.439999 46.2494 0.439999C42.2294 0.439999 39.2894 3.32 39.2894 7.34C39.2894 11.36 42.2294 14.24 46.2494 14.24ZM46.2494 11.72C43.7894 11.72 42.2094 9.82 42.2094 7.34C42.2094 4.84 43.7894 2.96 46.2494 2.96C48.7094 2.96 50.3094 4.84 50.3094 7.34C50.3094 9.82 48.7094 11.72 46.2494 11.72Z" fill="white"/>
</svg>
